<svg width="1002" height="1027" viewBox="0 0 1002 1027" fill="none" xmlns="http://www.w3.org/2000/svg">
<path d="M481.982 912.16L481.997 912.175L482.011 912.189C487.017 917.195 493.806 920.1 501 920.1C507.991 920.1 514.948 917.364 519.949 912.128C519.961 912.116 519.973 912.103 519.985 912.091L871.489 555.489C871.493 555.485 871.496 555.482 871.5 555.478C951.884 475.09 996.5 379.163 996.5 285.1C996.5 209.358 971.315 145.625 926.998 100.808C882.677 55.9853 819.63 30.5 744.7 30.5C680.435 30.5 635.137 44.8073 597.389 69.3515C561.449 92.7204 532.643 125.213 500.997 162.321C469.308 125.214 440.501 92.7208 404.574 69.352C366.839 44.8075 321.565 30.5 257.3 30.5C182.37 30.5 119.324 55.9853 75.0016 100.808C30.685 145.625 5.5 209.358 5.5 285.1C5.5 379.061 50.1147 475.088 130.399 555.377C130.403 555.381 130.407 555.385 130.411 555.389L481.982 912.16Z" fill="#A899D6" stroke="#CDC1F1" stroke-width="11"/>
<path d="M73.5513 74.6682L74.8638 73.9174L75.608 72.6012L110.341 11.1742L145.075 72.6012L145.831 73.9381L147.17 74.6899L209.765 109.834L147.17 144.977L145.825 145.732L145.069 147.076L110.341 208.785L75.6135 147.076L74.869 145.753L73.5513 144.999L12.0768 109.834L73.5513 74.6682Z" fill="#FEF400" stroke="#FFFCAA" stroke-width="11"/>
<path d="M609.709 665.786L611.025 665.042L611.775 663.729L667 567.086L722.225 663.729L722.987 665.062L724.329 665.808L823.675 721L724.329 776.192L722.981 776.941L722.219 778.281L667 875.375L611.781 778.281L611.03 776.961L609.709 776.214L512.165 721L609.709 665.786Z" fill="#FEF400" stroke="#FFFCAA" stroke-width="11"/>
</svg>
